<svg xmlns="http://www.w3.org/2000/svg" viewBox="0 0 220 56" fill="none">
  <!-- Logo Mark -->
  <g transform="translate(2, 3)">
    <!-- Abstract Team / Tree Network Mark -->
    <!-- Top Leaf / Person -->
    <circle cx="24" cy="10" r="4.5" fill="#2e7d32"/>
    <!-- Left Person -->
    <circle cx="11" cy="22" r="4" fill="#00838f"/>
    <!-- Right Person -->
    <circle cx="37" cy="22" r="4" fill="#0288d1"/>
    <!-- Connected Arcs -->
    <path d="M 24 16 L 24 38 M 11 26 C 11 36, 24 40, 24 40 M 37 26 C 37 36, 24 40, 24 40" stroke="#2e7d32" stroke-width="3.5" stroke-linecap="round" stroke-linejoin="round"/>
    <path d="M 14 26 C 18 20, 30 20, 34 26" stroke="#00838f" stroke-width="2.5" stroke-linecap="round"/>
    <!-- Base Ribbon -->
    <path d="M 8 42 C 16 38, 32 38, 40 42 L 36 46 C 28 43, 20 43, 12 46 Z" fill="#1b5e20"/>
  </g>
  <!-- Brand Typography -->
  <text x="54" y="20" font-family="-apple-system, BlinkMacSystemFont, 'Segoe UI', Roboto, Helvetica, Arial, sans-serif" font-weight="900" font-size="15" fill="#1b1b1b">Pune</text>
  <text x="54" y="35" font-family="-apple-system, BlinkMacSystemFont, 'Segoe UI', Roboto, Helvetica, Arial, sans-serif" font-weight="900" font-size="15" fill="#1b1b1b">Volunteers</text>
  <text x="54" y="50" font-family="-apple-system, BlinkMacSystemFont, 'Segoe UI', Roboto, Helvetica, Arial, sans-serif" font-weight="900" font-size="15" fill="#1b1b1b">Network</text>
</svg>
